<svg width="32" height="32" viewBox="0 0 32 32" fill="none" xmlns="http://www.w3.org/2000/svg">
<path d="M15.4712 0.17456C7.48166 0.43581 0.758822 6.89739 0.206239 14.8726C-0.378012 23.3102 5.65607 30.44 13.6345 31.6386V20.1958H11.079C9.92949 20.1958 8.99849 19.2648 8.99849 18.1153C8.99849 16.9658 9.92949 16.0348 11.079 16.0348H13.6329V13.2656C13.6329 8.68023 15.867 6.66781 19.6781 6.66781C20.2433 6.66781 20.7262 6.68048 21.1363 6.70106C22.1433 6.75014 22.9239 7.58931 22.9239 8.59789C22.9239 9.64764 22.0737 10.4979 21.0239 10.4979H20.3241C18.7059 10.4979 18.1407 12.0321 18.1407 13.7611V16.0364H21.1015C22.0372 16.0364 22.7529 16.8708 22.6104 17.7955L22.4394 18.9054C22.3238 19.6496 21.6842 20.199 20.9305 20.199H18.1407V31.6734C25.8721 30.6236 31.8333 24.0148 31.8333 16C31.8333 7.07948 24.4566 -0.116773 15.4712 0.17456Z" fill="#ABABAB"/>
</svg>
