<svg width="32" height="31" viewBox="0 0 32 31" fill="none" xmlns="http://www.w3.org/2000/svg">
<path d="M14.2583 0.325045C6.97501 1.11671 1.11668 6.97505 0.325014 14.1C-0.466652 21.5417 3.80835 28.1917 10.3 30.725C10.775 30.8834 11.25 30.5667 11.25 29.9334V27.4C11.25 27.4 10.6167 27.5584 9.82502 27.5584C7.60835 27.5584 6.65835 25.6584 6.50001 24.55C6.34168 23.9167 6.02501 23.4417 5.55001 22.9667C5.07501 22.8084 4.91668 22.8084 4.91668 22.65C4.91668 22.3334 5.39168 22.3334 5.55001 22.3334C6.50001 22.3334 7.29168 23.4417 7.60835 23.9167C8.40001 25.1834 9.35001 25.5 9.82502 25.5C10.4583 25.5 10.9333 25.3417 11.25 25.1834C11.4083 24.075 11.8833 22.9667 12.8333 22.3334C9.19168 21.5417 6.50001 19.4834 6.50001 16C6.50001 14.2584 7.29168 12.5167 8.40001 11.25C8.24168 10.9334 8.08335 10.1417 8.08335 9.03338C8.08335 8.40004 8.08335 7.60838 8.40001 6.97505C8.40001 6.65838 8.71668 6.50004 8.87501 6.50004H9.03335C9.82501 6.65838 11.4083 7.13338 12.8333 8.55838C13.7833 8.24171 14.8917 8.08338 16 8.08338C17.1083 8.08338 18.2167 8.24171 19.1667 8.55838C20.5917 7.13338 22.3333 6.65838 23.125 6.50004H23.2833C23.6 6.50004 23.7583 6.65838 23.9167 6.97505C23.9167 7.60838 23.9167 8.40004 23.9167 9.03338C23.9167 10.3 23.7583 10.9334 23.6 11.25C24.7083 12.5167 25.5 14.1 25.5 16C25.5 19.4834 22.8083 21.5417 19.1667 22.3334C20.1167 23.125 20.75 24.55 20.75 25.975V30.0917C20.75 30.5667 21.225 31.0417 21.8583 30.8834C27.7167 28.5084 31.8333 22.8084 31.8333 16.1584C31.8333 6.65838 23.7583 -0.783288 14.2583 0.325045Z" fill="#ABABAB"/>
</svg>
